<?xml version="1.0" encoding="utf-8"?>
<!-- Generator: Adobe Illustrator 24.0.1, SVG Export Plug-In . SVG Version: 6.00 Build 0)  -->
<svg version="1.1" id="Layer_1" xmlns="http://www.w3.org/2000/svg" xmlns:xlink="http://www.w3.org/1999/xlink" x="0px" y="0px"
	 viewBox="0 0 933.68 670" style="enable-background:new 0 0 933.68 670;" xml:space="preserve">
<style type="text/css">
	.st0{fill:#2E3192;}
</style>
<g>
	<path class="st0" d="M246.1,119.89h164.08c0,66.7,0.01,133.41,0,200.11c-15.35,0.07-30.69,0.05-46.03,0.06
		c20.23,13.28,35.38,34.07,41.68,57.45c7.34,26.55,3.22,56.06-11.34,79.48c-14.66,24.06-39.93,41.46-67.8,45.99
		c-10.43,1.9-21.06,1.24-31.6,1.33c-48.34-0.04-96.69-0.06-145.03-0.16V304.02c15.28-0.01,30.55,0,45.84,0
		c-16.13-10.67-29.08-26.07-36.75-43.83c-8.65-19.8-10.58-42.4-5.62-63.41c5.14-22.07,18.07-42.22,35.97-56.12
		C205.57,128.02,225.67,120.7,246.1,119.89z M192.02,161.17c-14.97,15.02-23.81,35.93-24.13,57.14
		c-0.5,19.98,6.51,40.03,19.37,55.34c12.6,15.19,30.82,25.68,50.37,28.57c7.37,1.24,14.87,0.84,22.32,0.9
		c44.39-0.02,88.78-0.09,133.17-0.12c-0.01-55.36,0.01-110.72-0.01-166.08c-48,0-95.99-0.01-143.99,0.01
		C227.85,136.98,206.89,146.01,192.02,161.17z M167.08,321.07c0,55.35-0.01,110.7,0,166.05c42.2,0.06,84.4,0.1,126.59,0.13
		c11.3-0.11,22.76,0.78,33.87-1.81c21.94-4.65,41.46-18.96,52.9-38.2c10.17-16.82,14.01-37.3,10.79-56.69
		c-3.11-19.48-13.46-37.69-28.58-50.36c-14.33-12.14-32.96-19.12-51.75-19.13C262.95,321.07,215.01,321.07,167.08,321.07z"/>
</g>
<g>
	<path class="st0" d="M664.13,257.69c14.61-15.53,32.85-27.65,52.93-34.87c20.94,7.7,39.95,20.5,54.89,37.09
		c17.28,19,29.25,42.45,36.18,67.08c4.9,17.39,7.39,35.45,7.41,53.52c-0.06,40.95-0.79,81.91-2.28,122.83
		c-7.56-4.56-14.96-9.38-22.71-13.63c-12.45-6.89-25.51-12.73-39.12-16.94c-10.14-3.09-20.59-5.44-31.21-5.9
		c-13.35-0.29-26.57,2.5-39.28,6.37c-12.91,4.02-25.33,9.56-37.06,16.25c-5.79,3.27-11.32,6.97-17.02,10.41
		c-19.24-12.29-39.93-22.68-62.09-28.47c-7.87-2.03-15.92-3.56-24.06-3.91c-12.65-0.32-25.2,2.19-37.3,5.71
		c-13.64,4.04-26.74,9.79-39.1,16.82c-7.96,4.5-15.48,9.72-23.19,14.65c-1.49-40.64-2.23-81.32-2.29-121.98
		c-0.13-21.82,3.33-43.67,10.31-64.34c9.92-29.7,27.89-57.18,53.16-76c10.63-8,22.5-14.32,34.97-18.92
		c21.04,7.64,40.1,20.54,55.07,37.18c16.16,17.82,27.7,39.55,34.76,62.47C634.45,298.96,646.72,276.09,664.13,257.69z
		 M658.62,293.17c-14.22,24.26-21.63,52.23-22.88,80.24c0.31,15.53-0.21,31.06,0.08,46.6c0.25,17.95,0.53,35.89,1.11,53.83
		c17.68-9.92,36.79-17.46,56.7-21.44c12.53-2.51,25.49-3.48,38.18-1.57c23.02,3.34,44.97,12.03,65.35,23.04
		c0.75-28.46,1.23-56.92,1.31-85.39c0.14-10.28-0.09-20.59-1.48-30.79c-3.57-27.22-12.98-54.01-29.31-76.24
		c-12.91-17.64-30.53-31.91-50.76-40.28C692.38,251.38,671.93,270.27,658.62,293.17z M487.92,280.41
		c-16.94,22.37-26.69,49.6-30.44,77.25c-2.43,17.1-1.41,34.41-1.47,51.62c0.21,21.74,0.6,43.47,1.19,65.19
		c14.98-8.36,30.93-15.06,47.56-19.34c14.04-3.57,28.66-5.72,43.14-4.17c24.54,2.74,47.94,11.89,69.56,23.55
		c0.84-31.07,1.39-62.16,1.04-93.24c0.45-10.35-0.68-20.69-2.41-30.89c-4.42-25.21-13.97-49.83-29.59-70.25
		c-12.72-16.75-29.8-30.22-49.25-38.31C517.76,249.97,500.64,263.53,487.92,280.41z"/>
</g>
</svg>
